<?xml version="1.0" standalone="no"?>
<!DOCTYPE svg PUBLIC "-//W3C//DTD SVG 20010904//EN"
 "http://www.w3.org/TR/2001/REC-SVG-20010904/DTD/svg10.dtd">
<svg version="1.0" xmlns="http://www.w3.org/2000/svg"
 width="112.000000pt" height="112.000000pt" viewBox="0 0 112.000000 112.000000"
 preserveAspectRatio="xMidYMid meet">
<metadata>
Created by potrace 1.11, written by Peter Selinger 2001-2013
</metadata>
<g transform="translate(0.000000,112.000000) scale(0.100000,-0.100000)"
fill="#000000" stroke="none">
<path d="M282 1090 c-13 -24 -22 -29 -37 -24 -45 14 -86 15 -122 4 -51 -17
-123 -69 -123 -90 0 -9 14 -36 30 -58 28 -39 34 -42 75 -42 40 0 47 -3 57 -27
11 -29 25 -166 31 -318 3 -49 12 -110 21 -133 15 -43 15 -44 -7 -62 -18 -15
-20 -22 -11 -37 6 -10 25 -19 42 -21 30 -3 30 -4 20 -34 -8 -23 -8 -36 1 -49
14 -23 15 -145 1 -154 -6 -3 -10 -15 -10 -26 0 -19 7 -20 319 -17 297 3 320 4
340 22 21 19 21 19 21 -2 0 -20 5 -22 70 -22 l71 0 -7 65 c-7 65 -7 65 19 65
35 0 39 9 25 74 -8 40 -14 54 -21 47 -6 -6 -19 -11 -28 -11 -25 0 -29 73 -7
125 41 98 44 174 12 318 -5 21 -3 27 10 27 16 0 24 39 9 41 -33 3 -50 11 -64
28 -9 11 -19 17 -23 14 -3 -4 -6 -1 -6 5 0 17 -71 91 -114 119 -88 56 -195 78
-311 62 -81 -11 -135 -26 -135 -38 0 -4 -13 -14 -28 -23 l-29 -17 -22 48 c-16
33 -22 63 -21 97 2 27 2 55 1 62 -2 23 -32 12 -49 -18z"/>
</g>
</svg>
